<?xml version="1.0" encoding="UTF-8"?>
<svg id="Layer_2" data-name="Layer 2" xmlns="http://www.w3.org/2000/svg" viewBox="0 0 527.11 232.85">
  <defs>
    <style>
      .cls-1 {
        fill: none;
      }

      .cls-1, .cls-2 {
        stroke-width: 0px;
      }

      .cls-2 {
        fill: #fff;
      }
    </style>
  </defs>
  <g id="Layer_1-2" data-name="Layer 1">
    <polygon class="cls-2" points="81.93 104.2 54.86 104.2 54.86 79.16 26.36 79.16 26.36 104.2 0 104.2 0 130.56 26.36 130.56 26.36 154.94 54.86 154.94 54.86 130.56 81.93 130.56 81.93 104.2"/>
    <path class="cls-2" d="M248.62,169.07h-96.49l-27.18,59.08h-27.86L201.4,8.5l101.59,219.65h-27.86l-26.5-59.08ZM238.77,147.07l-38.05-83.9-38.73,83.9h76.79Z"/>
    <path class="cls-2" d="M502.65,0h24.46v229.08h-24.46v-18.23c-8.15,9.74-23.44,22-48.25,22-35.67,0-68.63-23.25-68.63-69.13s32.62-68.19,68.63-68.19c27.18,0,41.79,13.83,48.25,21.68V0ZM410.92,163.72c0,27.97,16.99,49.02,46.21,49.02s46.89-22.94,46.89-48.71c0-33.62-25.14-48.39-46.89-48.39-24.12,0-46.21,16.34-46.21,48.08Z"/>
    <path class="cls-2" d="M9.9,11.75h38.39c19.06,0,23.39,6.04,23.39,11.6,0,4.12-2.7,8.58-10.61,9.95v.07c10.27.96,13.99,6.04,13.99,10.57,0,7.35-5.81,12.98-22.91,12.98H9.9V11.75ZM53.5,32.34c11.69,0,15.48-4.53,15.48-8.79s-4.12-9.27-20.68-9.27H12.74v18.06h40.76ZM51.81,54.38c15.21,0,20.41-4.6,20.41-10.5,0-4.53-4.73-9.2-18.18-9.2H12.74v19.7h39.07Z"/>
    <path class="cls-2" d="M7.87,179.52h39.81c18.66,0,25.62,4.32,25.62,12.77,0,5.42-3.79,10.16-13.18,10.78v.14c11.56.75,13.05,6.66,13.05,11.95v9.54h-2.84v-9.54c0-5.15-1.42-10.57-16.36-10.57H10.71v20.12h-2.84v-45.17ZM52.68,202.17c12.44,0,17.84-3.85,17.84-9.68,0-7-6.22-10.43-22.78-10.43H10.71v20.12h41.97Z"/>
    <path class="cls-2" d="M5.76,179.52h39.81c18.66,0,25.62,4.32,25.62,12.77,0,5.42-3.79,10.16-13.18,10.78v.14c11.56.75,13.05,6.66,13.05,11.95v9.54h-2.84v-9.54c0-5.15-1.42-10.57-16.36-10.57H8.6v20.12h-2.84v-45.17ZM50.58,202.17c12.44,0,17.84-3.85,17.84-9.68,0-7-6.22-10.43-22.78-10.43H8.6v20.12h41.97Z"/>
    <path class="cls-1" d="M72.22,43.81c0-4.53-4.73-9.2-18.18-9.2H12.74v19.7h39.07c15.21,0,20.41-4.6,20.41-10.5Z"/>
    <path class="cls-1" d="M68.98,23.49c0-4.46-4.12-9.27-20.68-9.27H12.74v18.06h40.76c11.69,0,15.48-4.53,15.48-8.79Z"/>
    <path class="cls-2" d="M347.48,43.25c-9.51,0-17.33,7.23-17.33,16.03s7.82,16.03,17.33,16.03,17.33-7.23,17.33-16.03-7.82-16.03-17.33-16.03Z"/>
    <rect class="cls-2" x="335.25" y="108.61" width="24.46" height="120.68"/>
    <path class="cls-1" d="M70.97,19.01c.05-3.62-5.91-6.62-13.32-6.72"/>
    <path class="cls-2" d="M9.13,12.01h38.39c19.06,0,23.39,6.04,23.39,11.6,0,4.12-2.7,8.58-10.61,9.95v.07c10.27.96,13.99,6.04,13.99,10.57,0,7.35-5.81,12.98-22.91,12.98H9.13V12.01ZM52.73,32.6c11.69,0,15.48-4.53,15.48-8.79s-4.12-9.27-20.68-9.27H11.97v18.06h40.76ZM51.04,54.64c15.21,0,20.41-4.6,20.41-10.5,0-4.53-4.73-9.2-18.18-9.2H11.97v19.7h39.07Z"/>
  </g>
</svg>